<svg width="557" height="482" viewBox="0 0 557 482" fill="none" xmlns="http://www.w3.org/2000/svg">
<path d="M310.982 244.699L378.244 177.461L412.499 211.703L541.857 82.3921C541.857 82.3921 585.397 171.548 513.98 243.595C442.562 315.642 278.356 479.131 278.356 479.131L210.998 411.799L345.752 277.095L310.982 244.699Z" stroke="black" stroke-width="4"/>
<path d="M143.71 346.091L473.875 16.0484C424.899 -4.19517 372.909 -8.2697 310.606 43.0119L143.302 210.254L107.915 174.88C67.0306 118.391 139.865 72.477 176.026 110.883L244.15 42.7847C197.5 -8.28833 54.2973 -31.6637 6.94466 106.32C4.67853 124.194 -11.4612 190.168 43.4617 245.289C70.5618 272.486 101.415 303.811 143.71 346.091V346.091Z" stroke="black" stroke-width="4"/>
</svg>
