<svg width="262" height="46" viewBox="0 0 262 46" fill="none" xmlns="http://www.w3.org/2000/svg">
<path d="M262 39.0309C262 37.2733 261.321 35.9793 259.889 35.0522C259.154 34.608 258.494 34.241 257.872 33.99C257.25 33.7389 256.44 33.4685 255.403 33.1402C254.367 32.8118 253.613 32.5414 253.104 32.329C252.595 32.1358 252.086 31.8075 251.577 31.344C251.068 30.8804 250.804 30.359 250.804 29.7795C250.804 28.1572 252.482 27.0563 254.989 27.0563C257.005 27.0563 258.607 27.655 259.814 28.8332L261.435 26.979C259.757 25.2601 257.571 24.4103 254.875 24.4103C252.764 24.4103 251.068 24.9124 249.805 25.9168C248.524 26.9404 247.883 28.2731 247.883 29.934C247.883 31.6916 248.561 32.9856 250.013 33.9127C250.729 34.3762 251.37 34.7239 251.935 34.9557C252.501 35.1874 253.292 35.4578 254.291 35.7862C254.367 35.8248 254.498 35.8634 254.668 35.9214C255.592 36.2304 256.346 36.5008 256.892 36.7132C257.439 36.945 257.948 37.2733 258.4 37.7175C258.852 38.1618 259.079 38.6639 259.079 39.2433C259.079 40.1125 258.664 40.8078 257.816 41.3485C256.968 41.8893 255.837 42.1597 254.442 42.1597C252.237 42.1597 250.408 41.5224 248.995 40.267L247.374 42.1211C249.334 43.9173 251.709 44.8057 254.517 44.8057C256.779 44.8057 258.589 44.2843 259.964 43.222C261.321 42.1597 262 40.7691 262 39.0309V39.0309Z" fill="white"/>
<path d="M233.332 44.4969H236.367L244.942 24.7195H241.776L234.878 40.9818L227.96 24.7195H224.794L233.332 44.4969Z" fill="white"/>
<path d="M222.587 35.5544C222.606 35.3419 222.625 35.0522 222.625 34.6466C222.625 31.6144 221.758 29.1615 220.005 27.2494C218.252 25.3567 215.972 24.4103 213.163 24.4103C210.393 24.4103 208.112 25.3373 206.359 27.1915C204.587 29.0649 203.702 31.4598 203.702 34.3762C203.702 37.4858 204.663 39.9966 206.604 41.9086C208.527 43.84 211.034 44.8057 214.125 44.8057C217.31 44.825 219.817 43.84 221.664 41.8893L219.949 40.1511C218.61 41.4644 216.801 42.1211 214.483 42.1211C212.353 42.1211 210.581 41.5031 209.168 40.2863C207.754 39.0695 207 37.4858 206.906 35.5544H222.587ZM206.943 33.1788C207.094 31.3633 207.773 29.8954 208.96 28.7559C210.148 27.6164 211.599 27.0563 213.352 27.0563C215.105 27.0563 216.556 27.6164 217.706 28.7559C218.855 29.8954 219.44 31.3633 219.496 33.1788H206.943Z" fill="white"/>
<path d="M188.699 44.8058C190.302 44.8058 191.753 44.3809 193.091 43.5311C194.41 42.7006 195.372 41.5997 195.956 40.2284V44.4968H199.009V15.8157H195.956V25.7816C194.524 24.8739 192.771 24.4103 190.679 24.4103C187.644 24.4103 185.175 25.3954 183.309 27.3654C181.424 29.3547 180.482 31.9428 180.482 35.1295C180.482 38.0073 181.236 40.325 182.762 42.1212C184.27 43.9174 186.249 44.8058 188.699 44.8058V44.8058ZM191.055 27.095C192.903 27.095 194.542 27.5585 195.956 28.4856V34.5308C195.956 36.7133 195.372 38.5288 194.184 39.9773C192.997 41.4259 191.508 42.1598 189.717 42.1598C187.964 42.1598 186.513 41.4838 185.401 40.1512C184.289 38.8185 183.724 37.0996 183.724 34.9557C183.724 32.6187 184.402 30.7067 185.759 29.2581C187.097 27.8096 188.869 27.095 191.055 27.095V27.095Z" fill="white"/>
<path d="M150.199 21.7721H145.603V13.1163H150.199V4.39404H161.455V13.1163H169.182V21.7721H161.455V32.8247C161.455 35.3992 162.676 36.6865 165.119 36.6865C165.829 36.6865 166.517 36.5311 167.184 36.2204C167.894 35.9097 168.538 35.5546 169.115 35.1551L173.511 42.0797C172.09 43.1894 170.514 44.055 168.782 44.6764C167.05 45.2978 165.274 45.6086 163.454 45.6086C160.922 45.6086 158.791 45.2534 157.059 44.5432C155.372 43.833 154.017 42.8565 152.996 41.6136C151.975 40.3263 151.242 38.7949 150.798 37.0194C150.399 35.2439 150.199 33.313 150.199 31.2267V21.7721Z" fill="white"/>
<path d="M120.293 13.1173H131.15L131.55 17.0456C132.438 15.8027 133.526 14.7596 134.813 13.9162C136.145 13.0285 137.744 12.5846 139.609 12.5846C140.497 12.5846 141.252 12.629 141.874 12.7178C142.54 12.8065 143.117 12.9397 143.605 13.1173L142.14 22.7051C141.074 22.4388 139.986 22.3056 138.876 22.3056C133.992 22.3056 131.55 24.9911 131.55 30.3621V44.411H120.293V13.1173Z" fill="white"/>
<path d="M81.1263 28.9638L99.0437 2.46399H110.167V28.0982H114.363V37.0868H110.167V44.4109H99.843V37.0868H81.1263V28.9638ZM99.843 28.0982V15.5807L91.3172 28.0982H99.843Z" fill="white"/>
<path d="M76.797 42.147C76.2642 42.4577 75.5759 42.8128 74.7322 43.2123C73.9329 43.5674 72.9782 43.9225 71.8681 44.2776C70.758 44.5884 69.5147 44.8547 68.1381 45.0766C66.7616 45.343 65.2962 45.4761 63.742 45.4761C57.9694 45.4761 53.5512 44.0335 50.4872 41.1483C47.4233 38.2186 45.8913 34.1349 45.8913 28.8971C45.8913 26.8109 46.2244 24.769 46.8904 22.7715C47.5565 20.7297 48.5556 18.9319 49.8878 17.3784C51.2643 15.7804 52.9739 14.4931 55.0165 13.5166C57.1035 12.54 59.5236 12.0518 62.2767 12.0518C64.4081 12.0518 66.4063 12.4291 68.2713 13.1837C70.1807 13.8939 71.8237 15.0036 73.2003 16.5128C74.6212 17.9776 75.7313 19.8419 76.5306 22.1057C77.3299 24.3251 77.7296 26.944 77.7296 29.9624V32.0931H56.5485C56.5929 32.6257 56.7261 33.1806 56.9481 33.7576C57.2145 34.3347 57.6364 34.8895 58.2137 35.4222C58.8353 35.9105 59.6346 36.3099 60.6115 36.6207C61.6328 36.9314 62.8762 37.0867 64.3415 37.0867C66.2509 37.0867 67.9827 36.8426 69.5369 36.3543C71.1354 35.8661 72.3788 35.3556 73.2669 34.8229L76.797 42.147ZM67.7385 25.4348C67.7385 24.9022 67.6275 24.3473 67.4054 23.7703C67.1834 23.1932 66.8282 22.6606 66.3397 22.1723C65.8957 21.684 65.3184 21.2845 64.6079 20.9738C63.9419 20.6187 63.1204 20.4411 62.1435 20.4411C61.211 20.4411 60.3895 20.6187 59.679 20.9738C58.9685 21.2845 58.3913 21.684 57.9472 22.1723C57.5032 22.6606 57.1701 23.1932 56.9481 23.7703C56.7261 24.3473 56.6151 24.9022 56.6151 25.4348H67.7385Z" fill="white"/>
<path d="M0 0H11.7895V16.2461H28.1748V0H39.9643V44.4105H28.1748V27.0325H11.7895V44.4105H0V0Z" fill="white"/>
</svg>
