<svg width="552" height="478" viewBox="0 0 552 478" fill="none" xmlns="http://www.w3.org/2000/svg">
<path d="M307.982 242.699L375.244 175.461L409.499 209.703L538.857 80.3921C538.857 80.3921 582.397 169.548 510.98 241.595C439.562 313.642 275.356 477.131 275.356 477.131L207.998 409.799L342.752 275.095L307.982 242.699Z" fill="#32353B"/>
<path d="M140.71 344.091L470.875 14.0484C421.899 -6.19517 369.909 -10.2697 307.606 41.0119L140.302 208.254L104.915 172.88C64.0306 116.391 136.865 70.477 173.026 108.883L241.15 40.7847C194.5 -10.2883 51.2973 -33.6637 3.94466 104.32C1.67853 122.194 -14.4612 188.168 40.4617 243.289C67.5618 270.486 98.4147 301.811 140.71 344.091V344.091Z" fill="#32353B"/>
</svg>
